HIERARCHY
ROOT Hips
{
	OFFSET 0.00000 0.00000 0.00000
	CHANNELS 6 Xposition Yposition Zposition Zrotation Yrotation Xrotation 
	JOINT LHipJoint
	{
		OFFSET 0 0 0
		CHANNELS 3 Zrotation Yrotation Xrotation
		JOINT LeftUpLeg
		{
			OFFSET 1.42489 -1.84941 0.69647
			CHANNELS 3 Zrotation Yrotation Xrotation
			JOINT LeftLeg
			{
				OFFSET 2.44443 -6.71602 0.00000
				CHANNELS 3 Zrotation Yrotation Xrotation
				JOINT LeftFoot
				{
					OFFSET 2.62838 -7.22137 0.00000
					CHANNELS 3 Zrotation Yrotation Xrotation
					JOINT LeftToeBase
					{
						OFFSET 0.24036 -0.66037 2.29953
						CHANNELS 3 Zrotation Yrotation Xrotation
						End Site
						{
							OFFSET 0.00000 -0.00000 1.19837
						}
					}
				}
			}
		}
	}
	JOINT RHipJoint
	{
		OFFSET 0 0 0
		CHANNELS 3 Zrotation Yrotation Xrotation
		JOINT RightUpLeg
		{
			OFFSET -1.37055 -1.84941 0.69647
			CHANNELS 3 Zrotation Yrotation Xrotation
			JOINT RightLeg
			{
				OFFSET -2.54834 -7.00152 0.00000
				CHANNELS 3 Zrotation Yrotation Xrotation
				JOINT RightFoot
				{
					OFFSET -2.65692 -7.29983 0.00000
					CHANNELS 3 Zrotation Yrotation Xrotation
					JOINT RightToeBase
					{
						OFFSET -0.18839 -0.51760 2.29390
						CHANNELS 3 Zrotation Yrotation Xrotation
						End Site
						{
							OFFSET -0.00000 -0.00000 1.18261
						}
					}
				}
			}
		}
	}
	JOINT LowerBack
	{
		OFFSET 0 0 0
		CHANNELS 3 Zrotation Yrotation Xrotation
		JOINT Spine
		{
			OFFSET 0.05220 2.15489 0.05011
			CHANNELS 3 Zrotation Yrotation Xrotation
			JOINT Spine1
			{
				OFFSET -0.07653 2.14219 -0.05668
				CHANNELS 3 Zrotation Yrotation Xrotation
				JOINT Neck
				{
					OFFSET 0 0 0
					CHANNELS 3 Zrotation Yrotation Xrotation
					JOINT Neck1
					{
						OFFSET 0.01370 1.58638 0.01447
						CHANNELS 3 Zrotation Yrotation Xrotation
						JOINT Head
						{
							OFFSET 0.23548 1.54190 -0.21747
							CHANNELS 3 Zrotation Yrotation Xrotation
							End Site
							{
								OFFSET 0.07132 1.59823 -0.08163
							}
						}
					}
				}
				JOINT LeftShoulder
				{
					OFFSET 0 0 0
					CHANNELS 3 Zrotation Yrotation Xrotation
					JOINT LeftArm
					{
						OFFSET 3.47056 1.45357 -0.58896
						CHANNELS 3 Zrotation Yrotation Xrotation
						JOINT LeftForeArm
						{
							OFFSET 5.19069 -0.00000 0.00000
							CHANNELS 3 Zrotation Yrotation Xrotation
							JOINT LeftHand
							{
								OFFSET 3.30016 -0.00000 0.00000
								CHANNELS 3 Zrotation Yrotation Xrotation
								JOINT LeftFingerBase
								{
									OFFSET 0 0 0
									CHANNELS 3 Zrotation Yrotation Xrotation
									JOINT LeftHandIndex1
									{
										OFFSET 0.70770 -0.00000 0.00000
										CHANNELS 3 Zrotation Yrotation Xrotation
										End Site
										{
											OFFSET 0.57056 -0.00000 0.00000
										}
									}
								}
								JOINT LThumb
								{
									OFFSET 0 0 0
									CHANNELS 3 Zrotation Yrotation Xrotation
									End Site
									{
										OFFSET 0.57928 -0.00000 0.57928
									}
								}
							}
						}
					}
				}
				JOINT RightShoulder
				{
					OFFSET 0 0 0
					CHANNELS 3 Zrotation Yrotation Xrotation
					JOINT RightArm
					{
						OFFSET -2.89018 2.03305 -0.26731
						CHANNELS 3 Zrotation Yrotation Xrotation
						JOINT RightForeArm
						{
							OFFSET -5.23924 -0.00000 0.00000
							CHANNELS 3 Zrotation Yrotation Xrotation
							JOINT RightHand
							{
								OFFSET -3.32953 -0.00000 0.00000
								CHANNELS 3 Zrotation Yrotation Xrotation
								JOINT RightFingerBase
								{
									OFFSET 0 0 0
									CHANNELS 3 Zrotation Yrotation Xrotation
									JOINT RightHandIndex1
									{
										OFFSET -0.60741 -0.00000 0.00000
										CHANNELS 3 Zrotation Yrotation Xrotation
										End Site
										{
											OFFSET -0.48971 -0.00000 0.00000
										}
									}
								}
								JOINT RThumb
								{
									OFFSET 0 0 0
									CHANNELS 3 Zrotation Yrotation Xrotation
									End Site
									{
										OFFSET -0.49719 -0.00000 0.49719
									}
								}
							}
						}
					}
				}
			}
		}
	}
}
MOTION
Frames: 14
Frame Time: 0.0294118
0.00 0.00 0.00 0 0 0 0 0 0 -21 0 0 0 0 0 0 0 0 0 0 0 0 0 0 21 0 0 0 0 0 0 0 0 0 0 0 0 0 0 0 0 0 0 0 0 0 0 -16 0 0 21 0 0 11 0 0 0 -8 0 0 0 0 0 0 0 0 0 0 0 0 0 0 0 0 0 0 0 0 8 0 0 0 0 0 0 0 0 0 0 0 0 0 0 0 0 0
0.00 0.00 0.00 -0.9827 -44.5455 20.2194 0.0000 0.0000 0.0000 -18.1492 -13.1689 -65.4246 13.4795 18.9485 70.6083 2.0133 3.1946 -28.1038 0.0789 -1.8115 -4.9851 0.0000 0.0000 0.0000 7.5550 20.0148 -64.9673 -14.9441 -19.3758 75.0682 -2.2276 -2.2621 -29.0941 -0.4158 4.1391 -11.4682 3.9028 -2.9392 41.0639 -1.2428 -3.2700 16.2172 -2.1400 -1.7168 -1.8022 1.7317 3.3291 -3.5134 -2.5571 3.7537 -29.2759 -1.3508 1.5724 -8.4425 0.0000 -0.0000 0.0000 15.9662 -72.1927 -33.2299 65.6078 -57.6279 -39.0439 -0.0000 0.0000 -50.8214 34.4665 9.5537 6.4995 -7.1250 0.0000 -0.0000 6.6983 41.4247 -0.5937 0.0000 -0.0000 0.0000 72.0864 19.4286 46.6705 -120.0550 56.2952 -85.7047 0.0000 0.0000 2.9316 -35.3189 -6.4629 4.5598 7.1250 -0.0000 -0.0000 -7.3357 -37.7911 -1.3103
0.00 0.00 0.00 1.7820 -43.6452 16.9097 0.0000 0.0000 0.0000 -21.8607 -17.9139 -62.3127 13.8805 19.0774 71.8394 2.2816 9.0867 -32.9273 0.0284 -1.0880 -2.9909 0.0000 0.0000 0.0000 0.2910 17.9366 -73.3059 -19.5392 -19.9949 88.6525 -0.5412 -2.0212 -14.7763 -0.9000 6.0462 -16.9185 3.3590 -2.8259 41.7996 -1.7598 -3.5714 19.1816 -2.3944 -1.8402 1.2757 2.5005 2.6435 -2.1002 -2.1477 2.8937 -32.9071 -1.3649 0.9352 -10.0509 0.0000 -0.0000 0.0000 41.7022 -62.6608 -52.9639 60.7027 -56.4943 -34.9264 -0.0000 0.0000 -56.6509 35.0487 11.8485 8.1959 -7.1250 0.0000 -0.0000 7.2721 44.2314 -0.1387 0.0000 -0.0000 0.0000 65.9131 26.6509 41.8222 -124.9528 54.8388 -89.7454 0.0000 -0.0000 -2.2998 -35.5597 -9.4240 6.6762 7.1250 -0.0000 -0.0000 -7.6816 -41.3891 -0.6887
0.00 0.00 0.00 1.3180 -41.5891 15.2890 0.0000 0.0000 0.0000 -24.3088 -16.0705 -58.8883 14.1227 19.1508 72.5789 2.7473 7.4247 -34.5811 0.0540 -1.4989 -4.1226 0.0000 0.0000 0.0000 -3.6960 20.8355 -86.0101 -14.8330 -19.3475 74.7333 -0.9615 -10.4272 -25.0413 -0.5820 4.8848 -13.5802 3.5827 -3.1444 43.1514 -2.0295 -3.9169 20.4074 -2.6849 -1.9628 2.2654 2.7574 1.8351 1.8230 -0.8580 2.2788 -35.2252 -0.9683 0.4226 -11.7711 -0.0000 -0.0000 0.0000 51.2025 -55.8914 -59.1211 56.8022 -55.3958 -31.6943 -0.0000 0.0000 -58.8637 33.6749 13.3550 8.7492 -7.1250 0.0000 -0.0000 5.9607 45.8162 0.1205 -0.0000 -0.0000 0.0000 63.9787 30.3841 40.3401 -129.4806 53.2028 -93.4105 0.0000 -0.0000 -6.3140 -35.5369 -11.7804 8.2967 7.1250 -0.0000 -0.0000 -7.7299 -44.2171 -0.1503
0.00 0.00 0.00 1.3218 -40.8832 14.3420 0.0000 0.0000 0.0000 -25.1169 -15.6289 -56.5765 14.0137 19.1182 72.2464 2.8646 7.3154 -35.1557 0.0689 -1.6936 -4.6597 0.0000 0.0000 0.0000 -3.5395 22.0546 -84.8632 -9.9744 -17.3954 59.4026 -1.2079 -9.0610 -25.8611 -0.7437 5.5089 -15.3659 3.5609 -3.2961 42.8130 -2.1098 -4.1073 20.5544 -2.7135 -2.0462 2.5024 2.9704 1.7915 2.5950 -0.6796 2.3585 -34.7177 -0.9552 0.4385 -11.7149 -0.0000 0.0000 0.0000 52.1672 -56.0319 -59.3137 55.3894 -54.9506 -30.5345 -0.0000 0.0000 -58.8860 33.4607 13.3667 8.6869 -7.1250 0.0000 -0.0000 5.7554 45.7984 0.1138 -0.0000 0.0000 0.0000 64.2924 30.1842 40.6376 -129.7392 53.1001 -93.6175 0.0000 -0.0000 -6.7270 -35.6085 -12.2032 8.6081 7.1250 -0.0000 -0.0000 -7.8057 -44.7331 -0.0517
0.00 0.00 0.00 1.0118 -40.2446 12.5078 0.0000 0.0000 0.0000 -26.1269 -14.5064 -52.5976 14.0039 19.1152 72.2163 3.1299 7.2101 -36.4901 0.0807 -1.8327 -5.0435 0.0000 0.0000 0.0000 -1.7317 23.5025 -80.9480 -5.6676 -14.0983 43.6325 -1.2710 -7.4929 -25.2126 -1.0484 6.5111 -18.2749 3.7560 -3.3825 42.1676 -2.1429 -4.1588 20.6404 -2.8579 -2.0533 2.7568 3.4897 1.7137 3.1247 -0.6657 2.3698 -33.3139 -1.0417 0.4362 -11.2441 -0.0000 0.0000 0.0000 52.3233 -58.1004 -58.1875 53.1681 -54.1960 -28.7244 -0.0000 0.0000 -58.5965 32.9723 13.5413 8.6369 -7.1250 0.0000 -0.0000 5.2823 45.9301 0.1216 -0.0000 0.0000 0.0000 64.9040 28.6134 41.4581 -129.1003 53.3520 -93.1056 0.0000 -0.0000 -7.2505 -35.5349 -12.4983 8.7863 7.1250 -0.0000 -0.0000 -7.7408 -45.0753 0.0145
0.00 0.00 0.00 1.9278 -37.3999 6.5084 0.0000 0.0000 0.0000 -29.8762 -7.1979 -39.3468 13.2760 18.8796 69.9806 3.6260 3.0858 -37.1991 0.3258 -3.6685 -10.1459 0.0000 0.0000 0.0000 4.6057 23.5759 -69.5061 -2.3613 -9.5813 27.6311 -1.1564 -6.5015 -23.6334 -1.2384 7.0567 -19.8835 4.2469 -4.2230 33.9079 -2.5105 -5.2190 20.7469 -3.5564 -2.4377 5.0583 3.7170 1.5425 3.5417 -0.3957 2.2874 -26.2565 -0.9384 0.6019 -8.7029 -0.0000 0.0000 0.0000 32.6967 -70.9806 -39.3587 55.9969 -55.1453 -31.0325 -0.0000 0.0000 -54.6667 32.8682 11.8611 7.5650 -7.1250 0.0000 -0.0000 5.2324 43.9564 -0.1352 -0.0000 0.0000 0.0000 69.6461 17.1614 47.1086 -121.1938 55.9833 -86.6503 0.0000 -0.0000 -4.8819 -36.1270 -9.5888 6.9326 7.1250 -0.0000 -0.0000 -8.2021 -41.6520 -0.6825
0.00 0.00 0.00 2.2793 -35.3306 5.6178 0.0000 0.0000 0.0000 -30.7221 -2.5215 -33.8699 12.4588 18.5779 67.4357 3.3707 1.3420 -35.2816 0.6558 -5.1798 -14.4221 0.0000 0.0000 0.0000 7.4178 21.5343 -63.7821 -1.7913 -8.4171 23.9884 -1.0749 -6.9090 -23.2332 -1.1926 6.9296 -19.5069 4.4263 -4.5153 26.9165 -2.2273 -5.7396 19.8258 -3.8302 -2.5953 7.1236 2.9654 1.1824 5.4113 0.2780 1.9419 -22.3860 -0.5557 0.5606 -7.7508 0.0000 0.0000 0.0000 -3.3072 -75.4798 -3.0560 62.3423 -56.9025 -36.2968 -0.0000 0.0000 -53.2737 31.2090 11.9151 7.1297 -7.1250 0.0000 -0.0000 3.6894 43.8078 -0.1087 0.0000 0.0000 0.0000 71.6382 7.8298 48.5001 -111.9073 58.1066 -78.8516 0.0000 -0.0000 -3.0724 -36.6292 -5.5287 4.0969 7.1250 -0.0000 -0.0000 -8.3973 -36.7434 -1.7203
0.00 0.00 0.00 2.6194 -34.0003 5.7971 0.0000 0.0000 0.0000 -30.7625 0.1387 -30.4900 11.6510 18.2392 64.8782 3.2241 -0.5213 -33.9270 0.8465 -5.8684 -16.4031 0.0000 0.0000 0.0000 8.8772 19.7827 -60.6164 -1.5423 -7.8394 22.2272 -1.0412 -7.0958 -23.0799 -1.1348 6.7655 -19.0225 4.6490 -4.8528 22.5550 -2.3764 -6.2335 19.0130 -4.2754 -2.7487 8.0721 2.1964 0.9912 7.0591 1.0983 1.8017 -20.3827 -0.1531 0.5315 -7.4037 0.0000 -0.0000 0.0000 -33.9222 -73.6554 28.2541 67.3325 -57.9666 -40.5034 -0.0000 0.0000 -51.4156 30.6255 11.5093 6.7366 -7.1250 0.0000 -0.0000 3.1707 43.2703 -0.1355 0.0000 -0.0000 0.0000 72.5267 0.8927 48.4893 -105.6948 59.0485 -73.5487 0.0000 -0.0000 -1.4002 -37.9027 -2.5596 1.9913 7.1250 -0.0000 -0.0000 -9.1888 -33.1217 -2.7046
0.00 0.00 0.00 2.9368 -32.7392 6.4429 0.0000 0.0000 0.0000 -30.3344 3.0991 -27.0539 10.6224 17.7453 61.5492 2.9840 -3.1694 -31.9514 1.0074 -6.3865 -17.9100 0.0000 0.0000 0.0000 9.9611 18.1165 -57.1617 -1.3000 -7.2236 20.3794 -1.0399 -7.4405 -23.3157 -1.0977 6.6577 -18.7053 5.0153 -5.1693 18.1464 -2.7324 -6.7086 18.0548 -5.0854 -2.8579 8.9764 1.9223 0.8870 8.3264 2.0252 1.8144 -17.9583 0.1861 0.5297 -6.8552 0.0000 -0.0000 0.0000 -54.3200 -67.8601 50.3504 73.1050 -58.8935 -45.4228 -0.0000 0.0000 -49.5925 30.0862 10.9849 6.2997 -7.1250 0.0000 -0.0000 2.7044 42.6078 -0.1598 0.0000 -0.0000 0.0000 73.7913 -6.2526 47.6575 -97.2544 59.8002 -66.2783 0.0000 0.0000 0.3429 -39.5661 0.4664 -0.3854 7.1250 -0.0000 -0.0000 -10.1465 -29.3037 -3.9381
0.00 0.00 0.00 3.6835 -31.7655 8.2741 0.0000 0.0000 0.0000 -29.5675 7.2152 -21.0472 8.4667 16.4520 54.2267 2.5876 -7.3447 -29.0652 1.1908 -6.9248 -19.4927 0.0000 0.0000 0.0000 10.7063 16.4961 -52.8848 -1.1855 -6.9098 19.4484 -1.0704 -7.5589 -23.6563 -0.9338 6.1556 -17.2367 5.6179 -5.4809 11.6269 -3.6176 -7.2371 16.1549 -6.7975 -2.9180 9.9441 1.9402 1.0540 9.4525 2.9938 2.1623 -14.1651 0.4585 0.7024 -5.8588 0.0000 0.0000 0.0000 -67.9266 -55.2765 68.6376 81.9034 -59.7508 -52.9940 -0.0000 0.0000 -45.8921 29.7037 9.5896 5.4288 -7.1250 0.0000 -0.0000 2.4267 40.9750 -0.2411 0.0000 0.0000 0.0000 76.4844 -16.0736 45.3133 -79.3940 59.5707 -50.8282 0.0000 0.0000 2.6904 -42.4228 5.4165 -4.9304 7.1250 -0.0000 -0.0000 -11.5007 -22.6982 -6.2962
0.00 0.00 0.00 2.7311 -34.3875 12.9365 0.0000 0.0000 0.0000 -28.6001 11.4860 -12.1388 5.1346 13.5337 41.4008 1.9342 -6.9912 -24.9990 1.3769 -7.4255 -20.9823 0.0000 0.0000 0.0000 15.8142 13.3212 -55.8009 -2.3601 -9.5790 27.6238 0.0049 -9.5567 -13.5321 -0.3415 3.7554 -10.3894 6.1092 -5.5637 7.0409 -2.7397 -7.4341 12.4874 -6.2674 -3.1252 8.2593 0.6397 2.4526 9.3410 1.1084 3.5550 -11.9068 -0.0121 1.6322 -5.1243 -0.0000 -0.0000 0.0000 -77.9972 -35.3148 79.8211 89.8712 -59.9999 -59.8885 -0.0000 0.0000 -40.1556 29.5648 7.3646 4.1589 -7.1250 0.0000 -0.0000 2.3813 38.4218 -0.3861 -0.0000 -0.0000 0.0000 73.2528 -25.8656 45.2257 -56.6222 55.3405 -31.5462 0.0000 0.0000 5.0553 -45.6271 9.9613 -10.0269 7.1250 -0.0000 -0.0000 -12.8181 -16.1050 -8.9897
0.00 0.00 0.00 1.2153 -37.2839 16.9275 0.0000 0.0000 0.0000 -27.0489 11.4828 -4.3953 3.2185 11.0406 32.4168 0.3142 -1.9222 -10.0936 1.2020 -6.9559 -19.5849 0.0000 0.0000 0.0000 14.8823 18.1824 -56.2577 -4.4355 -12.7184 38.3235 0.1964 -10.0110 -10.3145 -0.0550 -1.5138 4.1638 3.6477 -5.2688 10.1911 0.5466 -6.9282 9.8645 -1.0084 -3.3502 4.3210 -0.9288 2.9327 8.8161 -1.8135 3.6034 -11.3186 -0.6508 1.9228 -4.8270 0.0000 -0.0000 0.0000 -84.5897 -26.5821 82.3202 88.2802 -59.9888 -58.5107 -0.0000 0.0000 -37.3892 34.2056 3.7505 2.5459 -7.1250 0.0000 -0.0000 6.2538 34.4594 -1.6260 0.0000 -0.0000 0.0000 65.5704 -26.8085 46.9266 -47.5876 51.9750 -24.2604 0.0000 0.0000 5.4967 -46.5240 10.2590 -10.6381 7.1250 -0.0000 -0.0000 -13.3415 -15.5012 -9.5568
0.00 0.00 0.00 1.4741 -37.3238 17.5288 0.0000 0.0000 0.0000 -25.7268 9.6862 -10.9158 6.2276 14.6453 45.8883 0.0355 -1.9095 -3.4037 0.9923 -6.3397 -17.7734 0.0000 0.0000 0.0000 14.6561 18.3638 -55.5423 -5.1057 -13.5019 41.2774 0.0551 -9.1736 -12.0317 -0.1810 -2.7406 7.5573 6.6662 -5.4313 10.7444 -1.6649 -6.9659 11.5661 -4.9981 -3.0583 5.3104 0.4965 2.5853 7.5718 -0.6499 3.4661 -13.7560 -0.5189 1.7022 -5.3670 -0.0000 -0.0000 0.0000 -79.4091 -31.9575 80.0228 87.9940 -59.9848 -58.2629 -0.0000 0.0000 -38.9188 34.3194 3.7279 2.5414 -7.1250 0.0000 -0.0000 6.3466 34.4368 -1.6539 -0.0000 -0.0000 0.0000 70.3022 -23.1766 45.3344 -49.5775 52.8237 -25.8371 0.0000 0.0000 6.5164 -46.7735 9.9244 -10.3905 7.1250 -0.0000 -0.0000 -13.5771 -15.9042 -9.6139
